<mxfile host="app.diagrams.net" agent="Mozilla/5.0 (Windows NT 10.0; Win64; x64; rv:136.0) Gecko/20100101 Firefox/136.0" version="26.1.1">
  <diagram name="Page-1" id="5987fedf-629e-85c4-6858-42fee31821dd">
    <mxGraphModel dx="477" dy="254" grid="1" gridSize="10" guides="1" tooltips="1" connect="1" arrows="1" fold="1" page="1" pageScale="1.5" pageWidth="1169" pageHeight="826" background="none" math="0" shadow="0">
      <root>
        <mxCell id="0" style=";html=1;" />
        <mxCell id="1" style=";html=1;" parent="0" />
        <mxCell id="hl1c5VDJRd6h_xfj6l4f-51" value="A" style="ellipse;whiteSpace=wrap;html=1;aspect=fixed;fillColor=none;" vertex="1" parent="1">
          <mxGeometry x="480" y="400" width="20" height="20" as="geometry" />
        </mxCell>
        <mxCell id="hl1c5VDJRd6h_xfj6l4f-57" value="B" style="ellipse;whiteSpace=wrap;html=1;aspect=fixed;fillColor=none;" vertex="1" parent="1">
          <mxGeometry x="440" y="460" width="20" height="20" as="geometry" />
        </mxCell>
        <mxCell id="hl1c5VDJRd6h_xfj6l4f-58" value="C" style="ellipse;whiteSpace=wrap;html=1;aspect=fixed;fillColor=none;" vertex="1" parent="1">
          <mxGeometry x="520" y="460" width="20" height="20" as="geometry" />
        </mxCell>
        <mxCell id="hl1c5VDJRd6h_xfj6l4f-59" value="D" style="ellipse;whiteSpace=wrap;html=1;aspect=fixed;fillColor=none;" vertex="1" parent="1">
          <mxGeometry x="400" y="520" width="20" height="20" as="geometry" />
        </mxCell>
        <mxCell id="hl1c5VDJRd6h_xfj6l4f-60" value="E" style="ellipse;whiteSpace=wrap;html=1;aspect=fixed;fillColor=none;" vertex="1" parent="1">
          <mxGeometry x="460" y="520" width="20" height="20" as="geometry" />
        </mxCell>
        <mxCell id="hl1c5VDJRd6h_xfj6l4f-61" value="F" style="ellipse;whiteSpace=wrap;html=1;aspect=fixed;fillColor=none;" vertex="1" parent="1">
          <mxGeometry x="500" y="520" width="20" height="20" as="geometry" />
        </mxCell>
        <mxCell id="hl1c5VDJRd6h_xfj6l4f-62" value="G" style="ellipse;whiteSpace=wrap;html=1;aspect=fixed;fillColor=#fff2cc;strokeColor=#d6b656;" vertex="1" parent="1">
          <mxGeometry x="560" y="520" width="20" height="20" as="geometry" />
        </mxCell>
        <mxCell id="hl1c5VDJRd6h_xfj6l4f-66" value="" style="endArrow=blockThin;html=1;rounded=0;exitX=0;exitY=1;exitDx=0;exitDy=0;entryX=0.5;entryY=0;entryDx=0;entryDy=0;endFill=1;endSize=3;startSize=3;jumpSize=3;" edge="1" parent="1" source="hl1c5VDJRd6h_xfj6l4f-51" target="hl1c5VDJRd6h_xfj6l4f-57">
          <mxGeometry width="50" height="50" relative="1" as="geometry">
            <mxPoint x="460" y="500" as="sourcePoint" />
            <mxPoint x="510" y="450" as="targetPoint" />
          </mxGeometry>
        </mxCell>
        <mxCell id="hl1c5VDJRd6h_xfj6l4f-67" value="" style="endArrow=blockThin;html=1;rounded=0;exitX=1;exitY=1;exitDx=0;exitDy=0;entryX=0.5;entryY=0;entryDx=0;entryDy=0;endFill=1;endSize=3;startSize=3;jumpSize=3;" edge="1" parent="1" source="hl1c5VDJRd6h_xfj6l4f-51" target="hl1c5VDJRd6h_xfj6l4f-58">
          <mxGeometry width="50" height="50" relative="1" as="geometry">
            <mxPoint x="493" y="427" as="sourcePoint" />
            <mxPoint x="467" y="473" as="targetPoint" />
          </mxGeometry>
        </mxCell>
        <mxCell id="hl1c5VDJRd6h_xfj6l4f-68" value="" style="endArrow=blockThin;html=1;rounded=0;exitX=0;exitY=1;exitDx=0;exitDy=0;entryX=0.5;entryY=0;entryDx=0;entryDy=0;endFill=1;endSize=3;startSize=3;jumpSize=3;" edge="1" parent="1" source="hl1c5VDJRd6h_xfj6l4f-58" target="hl1c5VDJRd6h_xfj6l4f-61">
          <mxGeometry width="50" height="50" relative="1" as="geometry">
            <mxPoint x="507" y="427" as="sourcePoint" />
            <mxPoint x="533" y="473" as="targetPoint" />
          </mxGeometry>
        </mxCell>
        <mxCell id="hl1c5VDJRd6h_xfj6l4f-69" value="" style="endArrow=blockThin;html=1;rounded=0;exitX=1;exitY=1;exitDx=0;exitDy=0;entryX=0.5;entryY=0;entryDx=0;entryDy=0;endFill=1;endSize=3;startSize=3;jumpSize=3;fillColor=#fff2cc;strokeColor=#d6b656;" edge="1" parent="1" source="hl1c5VDJRd6h_xfj6l4f-58" target="hl1c5VDJRd6h_xfj6l4f-62">
          <mxGeometry width="50" height="50" relative="1" as="geometry">
            <mxPoint x="517" y="437" as="sourcePoint" />
            <mxPoint x="543" y="483" as="targetPoint" />
          </mxGeometry>
        </mxCell>
        <mxCell id="hl1c5VDJRd6h_xfj6l4f-70" value="" style="endArrow=blockThin;html=1;rounded=0;exitX=1;exitY=1;exitDx=0;exitDy=0;entryX=0.5;entryY=0;entryDx=0;entryDy=0;endFill=1;endSize=3;startSize=3;jumpSize=3;" edge="1" parent="1" source="hl1c5VDJRd6h_xfj6l4f-57" target="hl1c5VDJRd6h_xfj6l4f-60">
          <mxGeometry width="50" height="50" relative="1" as="geometry">
            <mxPoint x="527" y="447" as="sourcePoint" />
            <mxPoint x="553" y="493" as="targetPoint" />
          </mxGeometry>
        </mxCell>
        <mxCell id="hl1c5VDJRd6h_xfj6l4f-71" value="" style="endArrow=blockThin;html=1;rounded=0;exitX=0;exitY=1;exitDx=0;exitDy=0;entryX=0.5;entryY=0;entryDx=0;entryDy=0;endFill=1;endSize=3;startSize=3;jumpSize=3;" edge="1" parent="1" source="hl1c5VDJRd6h_xfj6l4f-57" target="hl1c5VDJRd6h_xfj6l4f-59">
          <mxGeometry width="50" height="50" relative="1" as="geometry">
            <mxPoint x="537" y="457" as="sourcePoint" />
            <mxPoint x="563" y="503" as="targetPoint" />
          </mxGeometry>
        </mxCell>
        <mxCell id="hl1c5VDJRd6h_xfj6l4f-72" value="A" style="ellipse;whiteSpace=wrap;html=1;aspect=fixed;fillColor=#f8cecc;strokeColor=#b85450;" vertex="1" parent="1">
          <mxGeometry x="560" y="400" width="20" height="20" as="geometry" />
        </mxCell>
        <mxCell id="hl1c5VDJRd6h_xfj6l4f-73" value="C" style="ellipse;whiteSpace=wrap;html=1;aspect=fixed;fillColor=#f8cecc;strokeColor=#b85450;" vertex="1" parent="1">
          <mxGeometry x="590" y="460" width="20" height="20" as="geometry" />
        </mxCell>
        <mxCell id="hl1c5VDJRd6h_xfj6l4f-75" value="" style="endArrow=blockThin;html=1;rounded=0;exitX=0;exitY=1;exitDx=0;exitDy=0;entryX=1;entryY=0;entryDx=0;entryDy=0;endFill=1;endSize=3;startSize=3;jumpSize=3;fillColor=#f8cecc;strokeColor=#b85450;" edge="1" parent="1" source="hl1c5VDJRd6h_xfj6l4f-72" target="hl1c5VDJRd6h_xfj6l4f-57">
          <mxGeometry width="50" height="50" relative="1" as="geometry">
            <mxPoint x="507" y="427" as="sourcePoint" />
            <mxPoint x="540" y="470" as="targetPoint" />
          </mxGeometry>
        </mxCell>
        <mxCell id="hl1c5VDJRd6h_xfj6l4f-76" value="" style="endArrow=blockThin;html=1;rounded=0;exitX=1;exitY=1;exitDx=0;exitDy=0;entryX=0.5;entryY=0;entryDx=0;entryDy=0;endFill=1;endSize=3;startSize=3;jumpSize=3;fillColor=#f8cecc;strokeColor=#b85450;" edge="1" parent="1" source="hl1c5VDJRd6h_xfj6l4f-72" target="hl1c5VDJRd6h_xfj6l4f-73">
          <mxGeometry width="50" height="50" relative="1" as="geometry">
            <mxPoint x="517" y="437" as="sourcePoint" />
            <mxPoint x="550" y="480" as="targetPoint" />
          </mxGeometry>
        </mxCell>
        <mxCell id="hl1c5VDJRd6h_xfj6l4f-77" value="" style="endArrow=blockThin;html=1;rounded=0;exitX=0;exitY=1;exitDx=0;exitDy=0;entryX=1;entryY=0;entryDx=0;entryDy=0;endFill=1;endSize=3;startSize=3;jumpSize=3;fillColor=#f8cecc;strokeColor=#b85450;" edge="1" parent="1" source="hl1c5VDJRd6h_xfj6l4f-73" target="hl1c5VDJRd6h_xfj6l4f-61">
          <mxGeometry width="50" height="50" relative="1" as="geometry">
            <mxPoint x="527" y="447" as="sourcePoint" />
            <mxPoint x="560" y="490" as="targetPoint" />
          </mxGeometry>
        </mxCell>
      </root>
    </mxGraphModel>
  </diagram>
</mxfile>
